<svg xmlns="http://www.w3.org/2000/svg" xmlns:xlink="http://www.w3.org/1999/xlink" width="73.8" height="44.6" viewBox="0 0 73.8 44.6">
  <defs>
    <symbol id="a" data-name="notice" viewBox="0 0 21 21">
      <g>
        <circle cx="10.5" cy="10.5" r="10" style="fill: #e5004f"/>
        <circle cx="10.5" cy="10.5" r="10" style="fill: none;stroke: #fff;stroke-miterlimit: 10"/>
      </g>
      <path d="M11,14.4a1.3,1.3,0,0,1-1.3,1.4,1.4,1.4,0,0,1-1.3-1.4,1.3,1.3,0,0,1,1.3-1.3A1.3,1.3,0,0,1,11,14.4Zm1.2-8.5A19.5,19.5,0,0,1,11.5,9c-.5,1.9-.5,1.7-.9,3.4H9.4c.1-1.6.2-3.1.2-5.2s.4-2.4,1.5-2.4A1,1,0,0,1,12.2,5.9Z" style="fill: #fff"/>
    </symbol>
  </defs>
  <title>reservation-reminder</title>
  <g>
    <g>
      <g>
        <polygon points="63.1 13 15.5 13 22.9 39.8 70.5 39.8 63.1 13" style="fill: #e597b2;stroke: #080000;stroke-linecap: round;stroke-linejoin: round"/>
        <polygon points="63.1 13 10.9 13 0.5 44.1 52.7 44.1 63.1 13" style="fill: #e597b2;stroke: #080000;stroke-linecap: round;stroke-linejoin: round"/>
      </g>
      <line x1="17.5" y1="29" x2="43.8" y2="29" style="fill: #e597b2;stroke: #080000;stroke-linecap: round;stroke-linejoin: round"/>
    </g>
    <use width="21" height="21" transform="translate(49.8) scale(1.14 1.14)" xlink:href="#a"/>
  </g>
</svg>
